<?xml version="1.0" encoding="utf-8"?>
<!-- Generator: Adobe Illustrator 17.0.0, SVG Export Plug-In . SVG Version: 6.00 Build 0)  -->
<!DOCTYPE svg PUBLIC "-//W3C//DTD SVG 1.1//EN" "http://www.w3.org/Graphics/SVG/1.1/DTD/svg11.dtd">
<svg version="1.1" id="Warstwa_1" xmlns="http://www.w3.org/2000/svg" xmlns:xlink="http://www.w3.org/1999/xlink" x="0px" y="0px"
	 width="60.192px" height="60.192px" viewBox="0 0 60.192 60.192" enable-background="new 0 0 60.192 60.192" xml:space="preserve">
<circle fill="#75C094" cx="30.096" cy="30.096" r="30.096"/>
<g>
	<g>
		<g>
			<path d="M47.384,28.383l-15.45-11.312c-0.298-0.218-0.703-0.218-1.001,0l-15.45,11.312c-0.377,0.276-0.459,0.806-0.183,1.184
				c0.276,0.377,0.806,0.459,1.184,0.183l14.949-10.946l14.949,10.946c0.151,0.11,0.326,0.164,0.5,0.164
				c0.261,0,0.518-0.12,0.684-0.347C47.844,29.189,47.762,28.659,47.384,28.383L47.384,28.383z"/>
		</g>
		<path d="M43.29,29.941c-0.468,0-0.847,0.379-0.847,0.847v13.48h-6.775V36.91c0-2.335-1.9-4.235-4.235-4.235
			c-2.335,0-4.235,1.9-4.235,4.235v7.358h-6.775v-13.48c0-0.468-0.379-0.847-0.847-0.847c-0.468,0-0.847,0.379-0.847,0.847v14.326
			c0,0.468,0.379,0.847,0.847,0.847h8.468c0.445,0,0.81-0.344,0.844-0.781c0.002-0.02,0.003-0.041,0.003-0.066V36.91
			c0-1.401,1.14-2.541,2.541-2.541c1.401,0,2.541,1.14,2.541,2.541v8.205c0,0.024,0.001,0.046,0.003,0.065
			c0.033,0.437,0.398,0.782,0.844,0.782h8.468c0.468,0,0.847-0.379,0.847-0.847V30.788C44.137,30.32,43.758,29.941,43.29,29.941
			L43.29,29.941z"/>
	</g>
	<g>
		<g>
			<path fill="#FFFFFF" d="M45.843,26.841l-15.45-11.312c-0.298-0.218-0.703-0.218-1.001,0l-15.45,11.312
				c-0.377,0.276-0.459,0.806-0.183,1.184c0.276,0.377,0.806,0.459,1.184,0.183l14.949-10.946l14.949,10.946
				c0.151,0.11,0.326,0.164,0.5,0.164c0.261,0,0.518-0.12,0.684-0.347C46.302,27.647,46.22,27.117,45.843,26.841L45.843,26.841z"/>
		</g>
		<path fill="#FFFFFF" d="M41.749,28.399c-0.468,0-0.847,0.379-0.847,0.847v13.48h-6.775v-7.358c0-2.335-1.9-4.235-4.235-4.235
			c-2.335,0-4.235,1.9-4.235,4.235v7.358h-6.775v-13.48c0-0.468-0.379-0.847-0.847-0.847c-0.468,0-0.847,0.379-0.847,0.847v14.326
			c0,0.468,0.379,0.847,0.847,0.847h8.468c0.445,0,0.81-0.344,0.844-0.781c0.002-0.02,0.003-0.041,0.003-0.066v-8.205
			c0-1.401,1.14-2.541,2.541-2.541c1.401,0,2.541,1.14,2.541,2.541v8.205c0,0.024,0.001,0.046,0.003,0.065
			c0.033,0.437,0.398,0.782,0.844,0.782h8.468c0.468,0,0.847-0.379,0.847-0.847V29.246C42.596,28.779,42.216,28.399,41.749,28.399
			L41.749,28.399z"/>
	</g>
</g>
</svg>
